<mxfile host="app.diagrams.net" agent="Mozilla/5.0 (Windows NT 10.0; Win64; x64) AppleWebKit/537.36 (KHTML, like Gecko) Chrome/135.0.0.0 Safari/537.36" version="26.2.12">
  <diagram name="StrÃ¡nka-1" id="GxT9UJkChwuMpMhPCaUo">
    <mxGraphModel dx="680" dy="370" grid="1" gridSize="10" guides="1" tooltips="1" connect="1" arrows="1" fold="1" page="1" pageScale="1" pageWidth="827" pageHeight="1169" math="0" shadow="0">
      <root>
        <mxCell id="0" />
        <mxCell id="1" parent="0" />
        <mxCell id="Xl09iJPIz0bYwaRJU8Io-2" value="&quot;trust&quot;" style="text;strokeColor=none;align=center;fillColor=none;html=1;verticalAlign=middle;whiteSpace=wrap;rounded=0;" vertex="1" parent="1">
          <mxGeometry x="170" y="250" width="100" height="60" as="geometry" />
        </mxCell>
        <mxCell id="Xl09iJPIz0bYwaRJU8Io-3" value="Hash function" style="rounded=1;whiteSpace=wrap;html=1;" vertex="1" parent="1">
          <mxGeometry x="330" y="250" width="120" height="60" as="geometry" />
        </mxCell>
        <mxCell id="Xl09iJPIz0bYwaRJU8Io-5" value="Input" style="text;strokeColor=none;align=center;fillColor=none;html=1;verticalAlign=middle;whiteSpace=wrap;rounded=0;fontStyle=4" vertex="1" parent="1">
          <mxGeometry x="190" y="180" width="60" height="30" as="geometry" />
        </mxCell>
        <mxCell id="Xl09iJPIz0bYwaRJU8Io-6" value="" style="endArrow=classic;html=1;rounded=0;" edge="1" parent="1">
          <mxGeometry width="50" height="50" relative="1" as="geometry">
            <mxPoint x="260" y="279.8" as="sourcePoint" />
            <mxPoint x="320" y="279.8" as="targetPoint" />
          </mxGeometry>
        </mxCell>
        <mxCell id="Xl09iJPIz0bYwaRJU8Io-7" value="" style="endArrow=classic;html=1;rounded=0;" edge="1" parent="1">
          <mxGeometry width="50" height="50" relative="1" as="geometry">
            <mxPoint x="460" y="279.8" as="sourcePoint" />
            <mxPoint x="520" y="279.8" as="targetPoint" />
          </mxGeometry>
        </mxCell>
        <mxCell id="Xl09iJPIz0bYwaRJU8Io-8" value="&quot;aGe8j&quot;" style="text;strokeColor=none;align=center;fillColor=none;html=1;verticalAlign=middle;whiteSpace=wrap;rounded=0;" vertex="1" parent="1">
          <mxGeometry x="530" y="265" width="60" height="30" as="geometry" />
        </mxCell>
        <mxCell id="Xl09iJPIz0bYwaRJU8Io-10" value="Digest" style="text;strokeColor=none;align=center;fillColor=none;html=1;verticalAlign=middle;whiteSpace=wrap;rounded=0;fontStyle=4" vertex="1" parent="1">
          <mxGeometry x="530" y="180" width="60" height="30" as="geometry" />
        </mxCell>
      </root>
    </mxGraphModel>
  </diagram>
</mxfile>
